<svg xmlns="http://www.w3.org/2000/svg" viewBox="0 0 32 31.21"><defs><style>.cls-1{fill:#ffffff;}</style></defs><title>icon-github-whiteAsset 1</title><g id="Layer_2" data-name="Layer 2"><g id="Layer_1-2" data-name="Layer 1"><path class="cls-1" d="M16,0a16,16,0,0,0-5.06,31.18c.8.15,1.09-.34,1.09-.77s0-1.38,0-2.72c-4.46,1-5.4-2.15-5.4-2.15A4.24,4.24,0,0,0,4.84,23.2c-1.44-1,.12-1,.12-1a3.34,3.34,0,0,1,2.45,1.64,3.4,3.4,0,0,0,4.66,1.33,3.39,3.39,0,0,1,1-2.14c-3.55-.4-7.29-1.77-7.29-7.9a6.15,6.15,0,0,1,1.65-4.3,5.7,5.7,0,0,1,.14-4.24S8.92,6.21,12,8.28a14.82,14.82,0,0,1,8,0c3-2.07,4.38-1.65,4.38-1.65a5.91,5.91,0,0,1,.16,4.24,6.25,6.25,0,0,1,1.63,4.3c0,6.14-3.74,7.5-7.29,7.89a3.87,3.87,0,0,1,1.07,3c0,2.14,0,3.86,0,4.38s.28.92,1.11.76A16,16,0,0,0,16,0Z"/></g></g></svg>