<svg id="Layer_1" data-name="Layer 1" xmlns="http://www.w3.org/2000/svg" viewBox="0 0 16.45 11.5"><defs><style>.cls-1{fill:#253a62;}</style></defs><title>mobile-menu-blue</title><path class="cls-1" d="M8,8.25H23a.75.75,0,0,0,0-1.5H8a.75.75,0,0,0,0,1.5Z" transform="translate(-7.28 -6.75)"/><path class="cls-1" d="M8,13.25H23a.75.75,0,0,0,0-1.5H8a.75.75,0,0,0,0,1.5Z" transform="translate(-7.28 -6.75)"/><path class="cls-1" d="M8,18.25H23a.75.75,0,0,0,0-1.5H8a.75.75,0,0,0,0,1.5Z" transform="translate(-7.28 -6.75)"/></svg>